<svg xmlns="http://www.w3.org/2000/svg" width="19.5" height="19.5" viewBox="0 0 19.5 19.5">
  <path id="Trazado_55" data-name="Trazado 55" d="M0-10.25A9.75,9.75,0,0,1,9.75-20a9.75,9.75,0,0,1,9.75,9.75A9.75,9.75,0,0,1,9.75-.5,9.75,9.75,0,0,1,0-10.25Zm10.725-4.875A.98.98,0,0,0,9.75-16.1a.98.98,0,0,0-.975.975v3.67a2.929,2.929,0,0,0,1.617,2.616l2.823,1.411a.976.976,0,0,0,.463.117.98.98,0,0,0,.975-.975.976.976,0,0,0-.566-.885l-2.822-1.412a.976.976,0,0,1-.539-.872Z" transform="translate(0 20)" fill="#fff" fill-rule="evenodd"/>
</svg>
