<svg xmlns="http://www.w3.org/2000/svg" width="22.405" height="32.59" viewBox="0 0 22.405 32.59">
  <path id="Trazado_53" data-name="Trazado 53" d="M6.114-483.091a2.038,2.038,0,0,0,.341,1.126l1.088,1.635a2.038,2.038,0,0,0,1.7.909h3.928a2.038,2.038,0,0,0,1.7-.909l1.088-1.635a2.036,2.036,0,0,0,.341-1.126l0-2.441H6.111ZM0-500.808a11.14,11.14,0,0,0,2.773,7.369A18.291,18.291,0,0,1,6.1-487.618c0,.017,0,.033.007.05H16.3c0-.017,0-.032.007-.05a18.291,18.291,0,0,1,3.323-5.821,11.14,11.14,0,0,0,2.773-7.369,11.2,11.2,0,0,0-11.237-11.2A11.156,11.156,0,0,0,0-500.808ZM11.2-505.9a5.1,5.1,0,0,0-5.092,5.092,1.018,1.018,0,0,1-1.018,1.018,1.018,1.018,0,0,1-1.018-1.018,7.137,7.137,0,0,1,7.129-7.129,1.018,1.018,0,0,1,1.018,1.018A1.018,1.018,0,0,1,11.2-505.9Z" transform="translate(0 512.011)" fill="#0f1034"/>
</svg>
